<svg width="199" height="25" viewBox="0 0 199 25" fill="none" xmlns="http://www.w3.org/2000/svg">
<path d="M0.819 9V0.627999H2.067L6.435 6.79V0.627999H7.839V9H6.591L2.236 2.851V9H0.819ZM9.41982 1.551V0.380999H10.9668V1.551H9.41982ZM9.53682 9V3.917H8.60082L8.73082 2.838H10.9538V9H9.53682ZM12.3469 9V0.238H13.7639V5.308L16.3509 2.838H17.9759L15.4669 5.321L18.1189 9H16.6239L14.5829 6.075L13.7639 6.855V9H12.3469ZM19.0693 9V2.838H20.3693L20.4343 3.488C20.7376 3.24533 21.0713 3.05467 21.4353 2.916C21.7993 2.77733 22.1893 2.708 22.6053 2.708C23.0473 2.708 23.3896 2.78167 23.6323 2.929C23.8836 3.06767 24.0743 3.26267 24.2043 3.514C24.4903 3.28 24.8196 3.08933 25.1923 2.942C25.5649 2.786 26.0113 2.708 26.5313 2.708C27.2419 2.708 27.7663 2.89 28.1043 3.254C28.4423 3.618 28.6113 4.177 28.6113 4.931V9H27.2203V5.074C27.2203 4.59733 27.1206 4.26367 26.9213 4.073C26.7219 3.88233 26.3969 3.787 25.9463 3.787C25.6516 3.787 25.3699 3.839 25.1013 3.943C24.8413 4.047 24.6159 4.203 24.4253 4.411C24.4513 4.50633 24.4686 4.606 24.4773 4.71C24.4859 4.814 24.4903 4.92667 24.4903 5.048V9H23.1773V5.087C23.1773 4.63633 23.0993 4.307 22.9433 4.099C22.7873 3.891 22.4926 3.787 22.0593 3.787C21.7559 3.787 21.4656 3.86067 21.1883 4.008C20.9196 4.14667 20.6769 4.31567 20.4603 4.515V9H19.0693ZM31.6766 9.13C31.2866 9.13 30.9226 9.06067 30.5846 8.922C30.2553 8.78333 29.991 8.57533 29.7916 8.298C29.5923 8.012 29.4926 7.661 29.4926 7.245C29.4926 6.65567 29.692 6.18333 30.0906 5.828C30.498 5.464 31.122 5.282 31.9626 5.282H33.9386V5.009C33.9386 4.71433 33.891 4.48033 33.7956 4.307C33.709 4.13367 33.5443 4.008 33.3016 3.93C33.0676 3.852 32.721 3.813 32.2616 3.813C31.5336 3.813 30.8533 3.92133 30.2206 4.138V3.085C30.498 2.97233 30.836 2.88133 31.2346 2.812C31.6333 2.74267 32.0623 2.708 32.5216 2.708C33.423 2.708 34.1076 2.89 34.5756 3.254C35.0523 3.618 35.2906 4.21167 35.2906 5.035V9H34.0816L33.9906 8.376C33.7393 8.61867 33.4273 8.805 33.0546 8.935C32.6906 9.065 32.2313 9.13 31.6766 9.13ZM32.0536 8.116C32.4783 8.116 32.8466 8.04667 33.1586 7.908C33.4793 7.76067 33.7393 7.56567 33.9386 7.323V6.244H31.9886C31.5726 6.244 31.2693 6.32633 31.0786 6.491C30.8966 6.647 30.8056 6.88967 30.8056 7.219C30.8056 7.53967 30.914 7.76933 31.1306 7.908C31.3473 8.04667 31.655 8.116 32.0536 8.116ZM38.955 9.13C38.2963 9.13 37.8023 8.95667 37.473 8.61C37.1523 8.25467 36.992 7.77367 36.992 7.167V3.943H36.082V2.838H36.992V1.421L38.396 0.991999V2.838H40.034L39.943 3.943H38.396V7.089C38.396 7.44433 38.4783 7.69567 38.643 7.843C38.8077 7.98167 39.0763 8.051 39.449 8.051C39.683 8.051 39.93 8.00767 40.19 7.921V8.922C39.852 9.06067 39.4403 9.13 38.955 9.13ZM41.5339 1.551V0.380999H43.0809V1.551H41.5339ZM41.6509 9V3.917H40.7149L40.8449 2.838H43.0679V9H41.6509ZM47.717 1.551V0.380999H49.264V1.551H47.717ZM47.834 9V3.917H46.898L47.028 2.838H49.251V9H47.834ZM50.644 9V2.838H51.944L52.009 3.488C52.2864 3.27133 52.6157 3.08933 52.997 2.942C53.387 2.786 53.816 2.708 54.284 2.708C55.0814 2.708 55.662 2.89433 56.026 3.267C56.39 3.63967 56.572 4.22033 56.572 5.009V9H55.168V5.074C55.168 4.59733 55.0684 4.26367 54.869 4.073C54.6784 3.88233 54.3144 3.787 53.777 3.787C53.4564 3.787 53.14 3.852 52.828 3.982C52.5247 4.112 52.269 4.281 52.061 4.489V9H50.644ZM59.9537 9.13C59.529 9.13 59.1217 9.09967 58.7317 9.039C58.3503 8.97833 58.034 8.90467 57.7827 8.818V7.622C58.0773 7.73467 58.4023 7.82133 58.7577 7.882C59.113 7.94267 59.451 7.973 59.7717 7.973C60.257 7.973 60.6037 7.92967 60.8117 7.843C61.0197 7.75633 61.1237 7.58733 61.1237 7.336C61.1237 7.154 61.0587 7.011 60.9287 6.907C60.8073 6.803 60.621 6.70767 60.3697 6.621C60.127 6.53433 59.815 6.43033 59.4337 6.309C59.0697 6.18767 58.7533 6.05767 58.4847 5.919C58.216 5.77167 58.008 5.58533 57.8607 5.36C57.7133 5.13467 57.6397 4.84 57.6397 4.476C57.6397 3.91267 57.8433 3.47933 58.2507 3.176C58.658 2.864 59.3123 2.708 60.2137 2.708C60.569 2.708 60.907 2.734 61.2277 2.786C61.5483 2.838 61.8213 2.903 62.0467 2.981V4.164C61.804 4.06867 61.5353 3.995 61.2407 3.943C60.9547 3.891 60.686 3.865 60.4347 3.865C59.984 3.865 59.6417 3.904 59.4077 3.982C59.1823 4.06 59.0697 4.216 59.0697 4.45C59.0697 4.69267 59.1867 4.866 59.4207 4.97C59.6633 5.06533 60.049 5.19967 60.5777 5.373C61.063 5.52033 61.4487 5.67633 61.7347 5.841C62.0207 6.00567 62.2243 6.205 62.3457 6.439C62.4757 6.66433 62.5407 6.959 62.5407 7.323C62.5407 7.92967 62.3197 8.38467 61.8777 8.688C61.4357 8.98267 60.7943 9.13 59.9537 9.13ZM64.1899 1.551V0.380999H65.7369V1.551H64.1899ZM64.3069 9V3.917H63.3709L63.5009 2.838H65.7239V9H64.3069ZM69.613 11.288C69.1536 11.288 68.6943 11.2577 68.235 11.197C67.7756 11.145 67.3856 11.0627 67.065 10.95V9.858C67.4116 9.97067 67.8103 10.0573 68.261 10.118C68.7116 10.1787 69.1406 10.209 69.548 10.209C70.172 10.209 70.627 10.1743 70.913 10.105C71.199 10.0357 71.342 9.87967 71.342 9.637C71.342 9.455 71.2726 9.325 71.134 9.247C70.9953 9.17767 70.731 9.143 70.341 9.143H68.677C67.559 9.143 67 8.74867 67 7.96C67 7.70867 67.0736 7.47467 67.221 7.258C67.3683 7.04133 67.6023 6.87667 67.923 6.764C67.5676 6.59067 67.3033 6.35233 67.13 6.049C66.9653 5.74567 66.883 5.38167 66.883 4.957C66.883 4.16833 67.117 3.59633 67.585 3.241C68.0616 2.88567 68.7723 2.708 69.717 2.708C69.9163 2.708 70.1243 2.72533 70.341 2.76C70.5576 2.786 70.7266 2.812 70.848 2.838H73.11L73.071 3.761H72.031C72.1956 3.89967 72.317 4.073 72.395 4.281C72.473 4.489 72.512 4.71433 72.512 4.957C72.512 5.61567 72.3126 6.13567 71.914 6.517C71.5153 6.88967 70.913 7.076 70.107 7.076C69.9683 7.076 69.8383 7.07167 69.717 7.063C69.6043 7.04567 69.4786 7.02833 69.34 7.011C69.08 7.037 68.846 7.10633 68.638 7.219C68.43 7.33167 68.326 7.48333 68.326 7.674C68.326 7.804 68.378 7.89933 68.482 7.96C68.586 8.012 68.7593 8.038 69.002 8.038H70.731C71.3463 8.038 71.8186 8.17233 72.148 8.441C72.486 8.701 72.655 9.08233 72.655 9.585C72.655 10.1917 72.3906 10.625 71.862 10.885C71.342 11.1537 70.5923 11.288 69.613 11.288ZM69.717 6.179C70.2803 6.179 70.6703 6.08367 70.887 5.893C71.1123 5.70233 71.225 5.37733 71.225 4.918C71.225 4.45867 71.1123 4.125 70.887 3.917C70.6703 3.709 70.2803 3.605 69.717 3.605C69.1883 3.605 68.8026 3.70467 68.56 3.904C68.3173 4.10333 68.196 4.44133 68.196 4.918C68.196 5.36 68.3086 5.68067 68.534 5.88C68.768 6.07933 69.1623 6.179 69.717 6.179ZM74.0552 9V0.238H75.4722V3.436C75.7409 3.21933 76.0615 3.046 76.4342 2.916C76.8069 2.77733 77.2272 2.708 77.6952 2.708C78.4752 2.708 79.0515 2.89433 79.4242 3.267C79.7969 3.63967 79.9832 4.22033 79.9832 5.009V9H78.5792V5.074C78.5792 4.59733 78.4752 4.26367 78.2672 4.073C78.0679 3.88233 77.7169 3.787 77.2142 3.787C76.9022 3.787 76.5859 3.85633 76.2652 3.995C75.9445 4.125 75.6802 4.29833 75.4722 4.515V9H74.0552ZM83.6638 9.13C83.0052 9.13 82.5112 8.95667 82.1818 8.61C81.8612 8.25467 81.7008 7.77367 81.7008 7.167V3.943H80.7908V2.838H81.7008V1.421L83.1048 0.991999V2.838H84.7428L84.6518 3.943H83.1048V7.089C83.1048 7.44433 83.1872 7.69567 83.3518 7.843C83.5165 7.98167 83.7852 8.051 84.1578 8.051C84.3918 8.051 84.6388 8.00767 84.8988 7.921V8.922C84.5608 9.06067 84.1492 9.13 83.6638 9.13ZM90.5128 9.13C90.0881 9.13 89.6808 9.09967 89.2908 9.039C88.9095 8.97833 88.5931 8.90467 88.3418 8.818V7.622C88.6365 7.73467 88.9615 7.82133 89.3168 7.882C89.6721 7.94267 90.0101 7.973 90.3308 7.973C90.8161 7.973 91.1628 7.92967 91.3708 7.843C91.5788 7.75633 91.6828 7.58733 91.6828 7.336C91.6828 7.154 91.6178 7.011 91.4878 6.907C91.3665 6.803 91.1801 6.70767 90.9288 6.621C90.6861 6.53433 90.3741 6.43033 89.9928 6.309C89.6288 6.18767 89.3125 6.05767 89.0438 5.919C88.7751 5.77167 88.5671 5.58533 88.4198 5.36C88.2725 5.13467 88.1988 4.84 88.1988 4.476C88.1988 3.91267 88.4025 3.47933 88.8098 3.176C89.2171 2.864 89.8715 2.708 90.7728 2.708C91.1281 2.708 91.4661 2.734 91.7868 2.786C92.1075 2.838 92.3805 2.903 92.6058 2.981V4.164C92.3631 4.06867 92.0945 3.995 91.7998 3.943C91.5138 3.891 91.2451 3.865 90.9938 3.865C90.5431 3.865 90.2008 3.904 89.9668 3.982C89.7415 4.06 89.6288 4.216 89.6288 4.45C89.6288 4.69267 89.7458 4.866 89.9798 4.97C90.2225 5.06533 90.6081 5.19967 91.1368 5.373C91.6221 5.52033 92.0078 5.67633 92.2938 5.841C92.5798 6.00567 92.7835 6.205 92.9048 6.439C93.0348 6.66433 93.0998 6.959 93.0998 7.323C93.0998 7.92967 92.8788 8.38467 92.4368 8.688C91.9948 8.98267 91.3535 9.13 90.5128 9.13ZM97.1587 9.13C96.084 9.13 95.252 8.86567 94.6627 8.337C94.0733 7.80833 93.7787 6.998 93.7787 5.906C93.7787 4.918 94.03 4.138 94.5327 3.566C95.0353 2.994 95.798 2.708 96.8207 2.708C97.7567 2.708 98.4587 2.955 98.9267 3.449C99.4033 3.93433 99.6417 4.56267 99.6417 5.334V6.478H95.1307C95.2 7.076 95.4167 7.48767 95.7807 7.713C96.1447 7.93833 96.6993 8.051 97.4447 8.051C97.7567 8.051 98.0773 8.02067 98.4067 7.96C98.736 7.89933 99.022 7.82133 99.2647 7.726V8.766C98.9873 8.88733 98.6667 8.97833 98.3027 9.039C97.9473 9.09967 97.566 9.13 97.1587 9.13ZM95.1307 5.555H98.3937V5.126C98.3937 4.70133 98.2767 4.372 98.0427 4.138C97.8087 3.89533 97.4143 3.774 96.8597 3.774C96.201 3.774 95.746 3.917 95.4947 4.203C95.252 4.489 95.1307 4.93967 95.1307 5.555ZM100.761 9V2.838H102.061L102.139 3.553C102.434 3.36233 102.785 3.189 103.192 3.033C103.599 2.877 104.002 2.76867 104.401 2.708V3.787C104.158 3.83033 103.894 3.89533 103.608 3.982C103.331 4.06 103.066 4.151 102.815 4.255C102.564 4.35033 102.351 4.45 102.178 4.554V9H100.761ZM107.526 9.13C106.867 9.13 106.373 8.95667 106.044 8.61C105.723 8.25467 105.563 7.77367 105.563 7.167V3.943H104.653V2.838H105.563V1.421L106.967 0.991999V2.838H108.605L108.514 3.943H106.967V7.089C106.967 7.44433 107.049 7.69567 107.214 7.843C107.379 7.98167 107.647 8.051 108.02 8.051C108.254 8.051 108.501 8.00767 108.761 7.921V8.922C108.423 9.06067 108.011 9.13 107.526 9.13ZM111.509 9.13C111.119 9.13 110.755 9.06067 110.417 8.922C110.087 8.78333 109.823 8.57533 109.624 8.298C109.424 8.012 109.325 7.661 109.325 7.245C109.325 6.65567 109.524 6.18333 109.923 5.828C110.33 5.464 110.954 5.282 111.795 5.282H113.771V5.009C113.771 4.71433 113.723 4.48033 113.628 4.307C113.541 4.13367 113.376 4.008 113.134 3.93C112.9 3.852 112.553 3.813 112.094 3.813C111.366 3.813 110.685 3.92133 110.053 4.138V3.085C110.33 2.97233 110.668 2.88133 111.067 2.812C111.465 2.74267 111.894 2.708 112.354 2.708C113.255 2.708 113.94 2.89 114.408 3.254C114.884 3.618 115.123 4.21167 115.123 5.035V9H113.914L113.823 8.376C113.571 8.61867 113.259 8.805 112.887 8.935C112.523 9.065 112.063 9.13 111.509 9.13ZM111.886 8.116C112.31 8.116 112.679 8.04667 112.991 7.908C113.311 7.76067 113.571 7.56567 113.771 7.323V6.244H111.821C111.405 6.244 111.101 6.32633 110.911 6.491C110.729 6.647 110.638 6.88967 110.638 7.219C110.638 7.53967 110.746 7.76933 110.963 7.908C111.179 8.04667 111.487 8.116 111.886 8.116ZM121.393 9.13C120.657 9.13 120.089 8.92633 119.69 8.519C119.3 8.11167 119.105 7.51367 119.105 6.725V2.838H120.522V6.725C120.522 7.18433 120.635 7.52233 120.86 7.739C121.086 7.95567 121.432 8.064 121.9 8.064C122.247 8.064 122.568 7.999 122.862 7.869C123.157 7.739 123.413 7.56567 123.629 7.349V2.838H125.033V9H123.746L123.681 8.363C123.404 8.57967 123.075 8.76167 122.693 8.909C122.312 9.05633 121.879 9.13 121.393 9.13ZM126.426 11.808V2.838H127.648L127.726 3.449C128.003 3.19767 128.307 3.01133 128.636 2.89C128.965 2.76867 129.355 2.708 129.806 2.708C130.69 2.708 131.379 2.95067 131.873 3.436C132.367 3.91267 132.614 4.70567 132.614 5.815C132.614 6.92433 132.358 7.75633 131.847 8.311C131.336 8.857 130.638 9.13 129.754 9.13C129.009 9.13 128.372 8.95667 127.843 8.61V11.808H126.426ZM129.39 8.064C130.586 8.064 131.184 7.31 131.184 5.802C131.184 5.074 131.05 4.55833 130.781 4.255C130.512 3.943 130.062 3.787 129.429 3.787C128.796 3.787 128.268 4.00367 127.843 4.437V7.518C128.042 7.68267 128.263 7.817 128.506 7.921C128.757 8.01633 129.052 8.064 129.39 8.064ZM136.28 9.13C135.726 9.13 135.236 9.03467 134.811 8.844C134.387 8.65333 134.057 8.337 133.823 7.895C133.589 7.453 133.472 6.85933 133.472 6.114C133.472 5.37733 133.598 4.75767 133.849 4.255C134.101 3.74367 134.447 3.358 134.889 3.098C135.34 2.838 135.847 2.708 136.41 2.708C136.783 2.708 137.112 2.75133 137.398 2.838C137.693 2.92467 137.975 3.059 138.243 3.241V0.238H139.66V9H138.451L138.36 8.389C138.083 8.64033 137.78 8.82667 137.45 8.948C137.121 9.06933 136.731 9.13 136.28 9.13ZM136.657 8.064C137.29 8.064 137.819 7.84733 138.243 7.414V4.333C137.836 3.969 137.325 3.787 136.709 3.787C136.111 3.787 135.661 3.98633 135.357 4.385C135.054 4.78367 134.902 5.36433 134.902 6.127C134.902 6.86367 135.041 7.37067 135.318 7.648C135.604 7.92533 136.051 8.064 136.657 8.064ZM142.899 9.13C142.509 9.13 142.145 9.06067 141.807 8.922C141.478 8.78333 141.214 8.57533 141.014 8.298C140.815 8.012 140.715 7.661 140.715 7.245C140.715 6.65567 140.915 6.18333 141.313 5.828C141.721 5.464 142.345 5.282 143.185 5.282H145.161V5.009C145.161 4.71433 145.114 4.48033 145.018 4.307C144.932 4.13367 144.767 4.008 144.524 3.93C144.29 3.852 143.944 3.813 143.484 3.813C142.756 3.813 142.076 3.92133 141.443 4.138V3.085C141.721 2.97233 142.059 2.88133 142.457 2.812C142.856 2.74267 143.285 2.708 143.744 2.708C144.646 2.708 145.33 2.89 145.798 3.254C146.275 3.618 146.513 4.21167 146.513 5.035V9H145.304L145.213 8.376C144.962 8.61867 144.65 8.805 144.277 8.935C143.913 9.065 143.454 9.13 142.899 9.13ZM143.276 8.116C143.701 8.116 144.069 8.04667 144.381 7.908C144.702 7.76067 144.962 7.56567 145.161 7.323V6.244H143.211C142.795 6.244 142.492 6.32633 142.301 6.491C142.119 6.647 142.028 6.88967 142.028 7.219C142.028 7.53967 142.137 7.76933 142.353 7.908C142.57 8.04667 142.878 8.116 143.276 8.116ZM150.178 9.13C149.519 9.13 149.025 8.95667 148.696 8.61C148.375 8.25467 148.215 7.77367 148.215 7.167V3.943H147.305V2.838H148.215V1.421L149.619 0.991999V2.838H151.257L151.166 3.943H149.619V7.089C149.619 7.44433 149.701 7.69567 149.866 7.843C150.03 7.98167 150.299 8.051 150.672 8.051C150.906 8.051 151.153 8.00767 151.413 7.921V8.922C151.075 9.06067 150.663 9.13 150.178 9.13ZM155.356 9.13C154.282 9.13 153.45 8.86567 152.86 8.337C152.271 7.80833 151.976 6.998 151.976 5.906C151.976 4.918 152.228 4.138 152.73 3.566C153.233 2.994 153.996 2.708 155.018 2.708C155.954 2.708 156.656 2.955 157.124 3.449C157.601 3.93433 157.839 4.56267 157.839 5.334V6.478H153.328C153.398 7.076 153.614 7.48767 153.978 7.713C154.342 7.93833 154.897 8.051 155.642 8.051C155.954 8.051 156.275 8.02067 156.604 7.96C156.934 7.89933 157.22 7.82133 157.462 7.726V8.766C157.185 8.88733 156.864 8.97833 156.5 9.039C156.145 9.09967 155.764 9.13 155.356 9.13ZM153.328 5.555H156.591V5.126C156.591 4.70133 156.474 4.372 156.24 4.138C156.006 3.89533 155.612 3.774 155.057 3.774C154.399 3.774 153.944 3.917 153.692 4.203C153.45 4.489 153.328 4.93967 153.328 5.555ZM164.048 9.13C163.389 9.13 162.895 8.95667 162.566 8.61C162.245 8.25467 162.085 7.77367 162.085 7.167V3.943H161.175V2.838H162.085V1.421L163.489 0.991999V2.838H165.127L165.036 3.943H163.489V7.089C163.489 7.44433 163.571 7.69567 163.736 7.843C163.901 7.98167 164.169 8.051 164.542 8.051C164.776 8.051 165.023 8.00767 165.283 7.921V8.922C164.945 9.06067 164.533 9.13 164.048 9.13ZM169.227 9.13C168.152 9.13 167.32 8.86567 166.731 8.337C166.142 7.80833 165.847 6.998 165.847 5.906C165.847 4.918 166.098 4.138 166.601 3.566C167.104 2.994 167.866 2.708 168.889 2.708C169.825 2.708 170.527 2.955 170.995 3.449C171.472 3.93433 171.71 4.56267 171.71 5.334V6.478H167.199C167.268 7.076 167.485 7.48767 167.849 7.713C168.213 7.93833 168.768 8.051 169.513 8.051C169.825 8.051 170.146 8.02067 170.475 7.96C170.804 7.89933 171.09 7.82133 171.333 7.726V8.766C171.056 8.88733 170.735 8.97833 170.371 9.039C170.016 9.09967 169.634 9.13 169.227 9.13ZM167.199 5.555H170.462V5.126C170.462 4.70133 170.345 4.372 170.111 4.138C169.877 3.89533 169.483 3.774 168.928 3.774C168.269 3.774 167.814 3.917 167.563 4.203C167.32 4.489 167.199 4.93967 167.199 5.555ZM172.829 9V2.838H174.129L174.207 3.553C174.502 3.36233 174.853 3.189 175.26 3.033C175.668 2.877 176.071 2.76867 176.469 2.708V3.787C176.227 3.83033 175.962 3.89533 175.676 3.982C175.399 4.06 175.135 4.151 174.883 4.255C174.632 4.35033 174.42 4.45 174.246 4.554V9H172.829ZM177.241 9V0.238H178.658V5.308L181.245 2.838H182.87L180.361 5.321L183.013 9H181.518L179.477 6.075L178.658 6.855V9H177.241ZM183.773 1.551V0.380999H185.32V1.551H183.773ZM183.89 9V3.917H182.954L183.084 2.838H185.307V9H183.89ZM186.7 9V2.838H188L188.065 3.488C188.342 3.27133 188.671 3.08933 189.053 2.942C189.443 2.786 189.872 2.708 190.34 2.708C191.137 2.708 191.718 2.89433 192.082 3.267C192.446 3.63967 192.628 4.22033 192.628 5.009V9H191.224V5.074C191.224 4.59733 191.124 4.26367 190.925 4.073C190.734 3.88233 190.37 3.787 189.833 3.787C189.512 3.787 189.196 3.852 188.884 3.982C188.58 4.112 188.325 4.281 188.117 4.489V9H186.7ZM194.475 1.551V0.380999H196.022V1.551H194.475ZM194.592 9V3.917H193.656L193.786 2.838H196.009V9H194.592ZM197.142 10.56L197.532 8.103H198.767L198.169 10.56H197.142Z" fill="#E0E0E0"/>
<path d="M0.585 22V15.838H2.873L2.938 16.306C3.172 16.15 3.47967 16.0113 3.861 15.89C4.251 15.7687 4.667 15.708 5.109 15.708C5.88033 15.708 6.44367 15.8987 6.799 16.28C7.15433 16.6613 7.332 17.2507 7.332 18.048V22H4.888V18.295C4.888 18.0177 4.82733 17.8183 4.706 17.697C4.58467 17.5757 4.37233 17.515 4.069 17.515C3.887 17.515 3.69633 17.5583 3.497 17.645C3.30633 17.7317 3.15033 17.8357 3.029 17.957V22H0.585ZM9.90762 24.288C9.56096 24.288 9.26629 24.2663 9.02362 24.223C8.78962 24.1883 8.55562 24.1277 8.32162 24.041V22.377C8.46029 22.429 8.59029 22.4637 8.71162 22.481C8.84162 22.4983 8.97596 22.507 9.11462 22.507C9.46129 22.507 9.71262 22.4637 9.86862 22.377C10.0333 22.2903 10.198 22.117 10.3626 21.857L7.58062 15.838H10.1416L11.5846 19.465L12.9886 15.838H15.5366L13.2616 21.415C12.9063 22.2903 12.4686 22.988 11.9486 23.508C11.4373 24.028 10.757 24.288 9.90762 24.288ZM16.9949 22.13C16.6049 22.13 16.2409 22.0607 15.9029 21.922C15.5735 21.7833 15.3092 21.5667 15.1099 21.272C14.9105 20.9773 14.8109 20.6047 14.8109 20.154C14.8109 19.504 15.0275 19.0013 15.4609 18.646C15.8942 18.282 16.5485 18.1 17.4239 18.1H19.0229V17.983C19.0229 17.7403 18.9232 17.5627 18.7239 17.45C18.5245 17.3373 18.1735 17.281 17.6709 17.281C16.9602 17.281 16.2582 17.3893 15.5649 17.606V16.137C15.8769 16.0157 16.2669 15.916 16.7349 15.838C17.2029 15.7513 17.6795 15.708 18.1649 15.708C19.1442 15.708 19.9199 15.9073 20.4919 16.306C21.0639 16.7047 21.3499 17.3373 21.3499 18.204V22H19.2179L19.1009 21.506C18.8842 21.6967 18.6025 21.8483 18.2559 21.961C17.9179 22.0737 17.4975 22.13 16.9949 22.13ZM17.8269 20.7C18.1042 20.7 18.3382 20.6523 18.5289 20.557C18.7282 20.4617 18.8929 20.3447 19.0229 20.206V19.439H17.8399C17.3025 19.439 17.0339 19.6513 17.0339 20.076C17.0339 20.492 17.2982 20.7 17.8269 20.7ZM24.2925 22.13C23.5385 22.13 23.0012 21.9697 22.6805 21.649C22.3599 21.3283 22.1995 20.8257 22.1995 20.141V13.238H24.6435V19.868C24.6435 20.0587 24.6825 20.1887 24.7605 20.258C24.8385 20.3187 24.9599 20.349 25.1245 20.349C25.2372 20.349 25.3455 20.3403 25.4495 20.323C25.5622 20.3057 25.6662 20.2797 25.7615 20.245V21.87C25.5362 21.9567 25.3152 22.0217 25.0985 22.065C24.8905 22.1083 24.6219 22.13 24.2925 22.13ZM28.0149 22.13C27.6249 22.13 27.2609 22.0607 26.9229 21.922C26.5936 21.7833 26.3292 21.5667 26.1299 21.272C25.9306 20.9773 25.8309 20.6047 25.8309 20.154C25.8309 19.504 26.0476 19.0013 26.4809 18.646C26.9142 18.282 27.5686 18.1 28.4439 18.1H30.0429V17.983C30.0429 17.7403 29.9432 17.5627 29.7439 17.45C29.5446 17.3373 29.1936 17.281 28.6909 17.281C27.9802 17.281 27.2782 17.3893 26.5849 17.606V16.137C26.8969 16.0157 27.2869 15.916 27.7549 15.838C28.2229 15.7513 28.6996 15.708 29.1849 15.708C30.1642 15.708 30.9399 15.9073 31.5119 16.306C32.0839 16.7047 32.3699 17.3373 32.3699 18.204V22H30.2379L30.1209 21.506C29.9042 21.6967 29.6226 21.8483 29.2759 21.961C28.9379 22.0737 28.5176 22.13 28.0149 22.13ZM28.8469 20.7C29.1242 20.7 29.3582 20.6523 29.5489 20.557C29.7482 20.4617 29.9129 20.3447 30.0429 20.206V19.439H28.8599C28.3226 19.439 28.0539 19.6513 28.0539 20.076C28.0539 20.492 28.3182 20.7 28.8469 20.7ZM33.2196 22V13.238H35.6636V17.567L37.3796 15.838H40.1486L37.6916 18.438L40.2916 22H37.6916L36.1706 19.712L35.6636 20.219V22H33.2196ZM42.0945 22.13C41.7045 22.13 41.3405 22.0607 41.0025 21.922C40.6732 21.7833 40.4088 21.5667 40.2095 21.272C40.0102 20.9773 39.9105 20.6047 39.9105 20.154C39.9105 19.504 40.1272 19.0013 40.5605 18.646C40.9938 18.282 41.6482 18.1 42.5235 18.1H44.1225V17.983C44.1225 17.7403 44.0228 17.5627 43.8235 17.45C43.6242 17.3373 43.2732 17.281 42.7705 17.281C42.0598 17.281 41.3578 17.3893 40.6645 17.606V16.137C40.9765 16.0157 41.3665 15.916 41.8345 15.838C42.3025 15.7513 42.7792 15.708 43.2645 15.708C44.2438 15.708 45.0195 15.9073 45.5915 16.306C46.1635 16.7047 46.4495 17.3373 46.4495 18.204V22H44.3175L44.2005 21.506C43.9838 21.6967 43.7022 21.8483 43.3555 21.961C43.0175 22.0737 42.5972 22.13 42.0945 22.13ZM42.9265 20.7C43.2038 20.7 43.4378 20.6523 43.6285 20.557C43.8278 20.4617 43.9925 20.3447 44.1225 20.206V19.439H42.9395C42.4022 19.439 42.1335 19.6513 42.1335 20.076C42.1335 20.492 42.3978 20.7 42.9265 20.7ZM47.2992 22V15.838H49.5872L49.6522 16.306C49.8862 16.15 50.1938 16.0113 50.5752 15.89C50.9652 15.7687 51.3812 15.708 51.8232 15.708C52.5945 15.708 53.1578 15.8987 53.5132 16.28C53.8685 16.6613 54.0462 17.2507 54.0462 18.048V22H51.6022V18.295C51.6022 18.0177 51.5415 17.8183 51.4202 17.697C51.2988 17.5757 51.0865 17.515 50.7832 17.515C50.6012 17.515 50.4105 17.5583 50.2112 17.645C50.0205 17.7317 49.8645 17.8357 49.7432 17.957V22H47.2992ZM57.2909 22V15.838H59.5789L59.6439 16.306C59.8779 16.15 60.1856 16.0113 60.5669 15.89C60.9569 15.7687 61.3729 15.708 61.8149 15.708C62.5862 15.708 63.1496 15.8987 63.5049 16.28C63.8602 16.6613 64.0379 17.2507 64.0379 18.048V22H61.5939V18.295C61.5939 18.0177 61.5332 17.8183 61.4119 17.697C61.2906 17.5757 61.0782 17.515 60.7749 17.515C60.5929 17.515 60.4022 17.5583 60.2029 17.645C60.0122 17.7317 59.8562 17.8357 59.7349 17.957V22H57.2909ZM68.1414 22.13C66.9108 22.13 66.0008 21.857 65.4114 21.311C64.8308 20.765 64.5404 19.9677 64.5404 18.919C64.5404 17.879 64.8351 17.086 65.4244 16.54C66.0138 15.9853 66.9194 15.708 68.1414 15.708C69.3721 15.708 70.2821 15.9853 70.8714 16.54C71.4694 17.086 71.7684 17.879 71.7684 18.919C71.7684 19.9677 71.4738 20.765 70.8844 21.311C70.2951 21.857 69.3808 22.13 68.1414 22.13ZM68.1414 20.349C68.5401 20.349 68.8261 20.2363 68.9994 20.011C69.1814 19.7857 69.2724 19.4217 69.2724 18.919C69.2724 18.425 69.1814 18.0653 68.9994 17.84C68.8261 17.606 68.5401 17.489 68.1414 17.489C67.7514 17.489 67.4698 17.606 67.2964 17.84C67.1231 18.0653 67.0364 18.425 67.0364 18.919C67.0364 19.4217 67.1231 19.7857 67.2964 20.011C67.4698 20.2363 67.7514 20.349 68.1414 20.349ZM75.0632 22.13C74.2399 22.13 73.6419 21.922 73.2692 21.506C72.8966 21.09 72.7102 20.5267 72.7102 19.816V17.645H71.9042V15.838H72.7102V14.577L75.1542 13.992V15.838H76.5712L76.4802 17.645H75.1542V19.634C75.1542 19.894 75.2192 20.0803 75.3492 20.193C75.4792 20.297 75.6786 20.349 75.9472 20.349C76.1986 20.349 76.4542 20.3057 76.7142 20.219V21.844C76.2549 22.0347 75.7046 22.13 75.0632 22.13ZM77.5317 15.019V13.251H80.1707V15.019H77.5317ZM77.7267 22V17.619H76.8297L77.0377 15.838H80.1707V22H77.7267ZM81.3559 22V17.645H80.5629V15.838H81.3559V15.474C81.3559 15.0233 81.4599 14.6117 81.6679 14.239C81.8846 13.8663 82.2053 13.5673 82.6299 13.342C83.0546 13.1167 83.5746 13.004 84.1899 13.004C84.9353 13.004 85.5419 13.095 86.0099 13.277V14.928C85.9059 14.8847 85.7629 14.85 85.5809 14.824C85.3989 14.7893 85.2299 14.772 85.0739 14.772C84.2246 14.772 83.7999 15.0233 83.7999 15.526V15.838H87.4659V22H85.0219V17.645H83.7999V22H81.3559ZM88.3766 22V13.238H90.8206V17.567L92.5366 15.838H95.3056L92.8486 18.438L95.4486 22H92.8486L91.3276 19.712L90.8206 20.219V22H88.3766ZM97.2516 22.13C96.8616 22.13 96.4976 22.0607 96.1596 21.922C95.8302 21.7833 95.5659 21.5667 95.3666 21.272C95.1672 20.9773 95.0676 20.6047 95.0676 20.154C95.0676 19.504 95.2842 19.0013 95.7176 18.646C96.1509 18.282 96.8052 18.1 97.6806 18.1H99.2796V17.983C99.2796 17.7403 99.1799 17.5627 98.9806 17.45C98.7812 17.3373 98.4302 17.281 97.9276 17.281C97.2169 17.281 96.5149 17.3893 95.8216 17.606V16.137C96.1336 16.0157 96.5236 15.916 96.9916 15.838C97.4596 15.7513 97.9362 15.708 98.4216 15.708C99.4009 15.708 100.177 15.9073 100.749 16.306C101.321 16.7047 101.607 17.3373 101.607 18.204V22H99.4746L99.3576 21.506C99.1409 21.6967 98.8592 21.8483 98.5126 21.961C98.1746 22.0737 97.7542 22.13 97.2516 22.13ZM98.0836 20.7C98.3609 20.7 98.5949 20.6523 98.7856 20.557C98.9849 20.4617 99.1496 20.3447 99.2796 20.206V19.439H98.0966C97.5592 19.439 97.2906 19.6513 97.2906 20.076C97.2906 20.492 97.5549 20.7 98.0836 20.7ZM104.861 22.13C104.333 22.13 103.834 22.091 103.366 22.013C102.907 21.9437 102.543 21.8527 102.274 21.74V19.985C102.578 20.1237 102.937 20.232 103.353 20.31C103.778 20.388 104.138 20.427 104.432 20.427C104.744 20.427 104.978 20.4183 105.134 20.401C105.299 20.3837 105.381 20.31 105.381 20.18C105.381 20.0327 105.238 19.92 104.952 19.842C104.666 19.764 104.307 19.6513 103.873 19.504C103.31 19.3047 102.89 19.0707 102.612 18.802C102.335 18.5333 102.196 18.1433 102.196 17.632C102.196 17.0167 102.439 16.5443 102.924 16.215C103.41 15.877 104.172 15.708 105.212 15.708C105.611 15.708 106.023 15.7383 106.447 15.799C106.872 15.8597 107.206 15.929 107.448 16.007V17.723C107.188 17.6103 106.902 17.528 106.59 17.476C106.287 17.424 106.01 17.398 105.758 17.398C105.481 17.398 105.234 17.411 105.017 17.437C104.801 17.463 104.692 17.5367 104.692 17.658C104.692 17.7967 104.814 17.8963 105.056 17.957C105.308 18.0177 105.641 18.113 106.057 18.243C106.525 18.3817 106.889 18.5333 107.149 18.698C107.418 18.8627 107.604 19.062 107.708 19.296C107.821 19.53 107.877 19.8203 107.877 20.167C107.877 20.791 107.622 21.2763 107.11 21.623C106.608 21.961 105.858 22.13 104.861 22.13ZM108.96 15.019V13.251H111.599V15.019H108.96ZM109.155 22V17.619H108.258L108.466 15.838H111.599V22H109.155Z" fill="#9DE892"/>
<path d="M0 23.625H112.184V24.275H0V23.625Z" fill="#9DE892"/>
</svg>
