<svg width="18" height="22" viewBox="0 0 18 22" fill="none" xmlns="http://www.w3.org/2000/svg">
<path d="M16.2 22H1.8C1.32276 21.9996 0.865196 21.8339 0.527734 21.5393C0.190272 21.2447 0.000476529 20.8452 0 20.4286V1.57143C0.000476529 1.15479 0.190272 0.75533 0.527734 0.46072C0.865196 0.16611 1.32276 0.000416017 1.8 0H16.2C16.6772 0.000416017 17.1348 0.16611 17.4723 0.46072C17.8097 0.75533 17.9995 1.15479 18 1.57143V14.6284L13.5 12.6641L9 14.6284V1.57143H1.8V20.4286H16.2V17.2857H18V20.4286C17.9993 20.8451 17.8094 21.2445 17.472 21.5391C17.1346 21.8336 16.6772 21.9994 16.2 22ZM13.5 10.9073L16.2 12.0859V1.57143H10.8V12.0859L13.5 10.9073Z" fill="#545454"/>
</svg>
