<svg width="27" height="24" viewBox="0 0 27 24" fill="none" xmlns="http://www.w3.org/2000/svg">
<path d="M13.5 0C13.5 0 5.1489 7.12 0.48195 10.976C0.333446 11.1038 0.2138 11.261 0.130772 11.4374C0.0477448 11.6138 0.00319088 11.8055 0 12C0 12.3536 0.142232 12.6928 0.395406 12.9428C0.64858 13.1929 0.991958 13.3333 1.35 13.3333H4.05V22.6667C4.05 23.0203 4.19223 23.3594 4.44541 23.6095C4.69858 23.8595 5.04196 24 5.4 24H9.45C9.80804 24 10.1514 23.8595 10.4046 23.6095C10.6578 23.3594 10.8 23.0203 10.8 22.6667V17.3333H16.2V22.6667C16.2 23.0203 16.3422 23.3594 16.5954 23.6095C16.8486 23.8595 17.192 24 17.55 24H21.6C21.958 24 22.3014 23.8595 22.5546 23.6095C22.8078 23.3594 22.95 23.0203 22.95 22.6667V13.3333H25.65C26.008 13.3333 26.3514 13.1929 26.6046 12.9428C26.8578 12.6928 27 12.3536 27 12C26.9981 11.8018 26.9506 11.6065 26.861 11.4291C26.7714 11.2517 26.6421 11.0968 26.483 10.976C21.8484 7.12 13.5 0 13.5 0Z" fill="#545454"/>
</svg>
