<svg width="20" height="20" viewBox="0 0 20 20" fill="none" xmlns="http://www.w3.org/2000/svg">
<g clip-path="url(#clip0_242_4678)">
<path d="M18.8625 15.9875C19.0213 15.8638 19.1479 15.7036 19.2316 15.5205C19.3152 15.3374 19.3533 15.1367 19.3428 14.9357C19.3322 14.7347 19.2733 14.5392 19.1709 14.3658C19.0686 14.1924 18.9259 14.0464 18.755 13.94L18.75 6.6625L17.5 7.5V13.9375C17.331 14.0438 17.19 14.189 17.0886 14.361C16.9872 14.5329 16.9284 14.7267 16.9172 14.926C16.9059 15.1253 16.9425 15.3244 17.0239 15.5066C17.1053 15.6889 17.2291 15.8491 17.385 15.9738L16.9125 16.6012C16.4923 17.1359 16.2595 17.7938 16.25 18.4738V20.0012H17.2687C17.5135 20.0012 17.7512 19.9196 17.9443 19.7693C18.1375 19.6189 18.2749 19.4085 18.335 19.1712L18.7487 17.5013V20.0012H19.9987V18.4888C19.9892 17.8053 19.7546 17.1441 19.3312 16.6075L18.8625 15.9875ZM10 0L0 5L10 11.25L20 5L10 0Z" fill="#545454"/>
<path d="M10 12.4999L3.75 8.3374V10.4749C3.75 11.6124 7.425 14.9999 10 14.9999C12.575 14.9999 16.25 11.6124 16.25 10.4749V8.3374L10 12.4999Z" fill="#545454"/>
</g>
<defs>
<clipPath id="clip0_242_4678">
<rect width="20" height="20" fill="white"/>
</clipPath>
</defs>
</svg>
