<svg width="21" height="21" viewBox="0 0 21 21" fill="none" xmlns="http://www.w3.org/2000/svg">
<path d="M12.8166 18.1229C13.1161 18.2913 13.4545 18.3783 13.7981 18.3754C14.1416 18.3725 14.4785 18.2797 14.7751 18.1062C15.0717 17.9328 15.3177 17.6847 15.4888 17.3867C15.6598 17.0887 15.7499 16.7511 15.75 16.4075L15.75 4.595C15.7501 4.25129 15.6602 3.91354 15.4893 3.61535C15.3183 3.31715 15.0723 3.06891 14.7757 2.8953C14.479 2.72169 14.1421 2.62877 13.7984 2.62578C13.4547 2.62279 13.1162 2.70983 12.8166 2.87825L2.31656 8.7845C2.01201 8.95574 1.75851 9.20494 1.58209 9.50652C1.40568 9.80811 1.31269 10.1512 1.31269 10.5006C1.31269 10.85 1.40568 11.1931 1.58209 11.4947C1.75851 11.7963 2.01201 12.0455 2.31656 12.2167L12.8166 18.1229Z" fill="white"/>
</svg>
