<svg width="15" height="15" viewBox="0 0 15 15" fill="none" xmlns="http://www.w3.org/2000/svg">
<g id="mdi:bell-notification">
<path id="Vector" d="M13.125 4.0625C13.125 5.26875 12.1438 6.25 10.9375 6.25C9.73125 6.25 8.75 5.26875 8.75 4.0625C8.75 2.85625 9.73125 1.875 10.9375 1.875C12.1438 1.875 13.125 2.85625 13.125 4.0625ZM11.875 7.36875C11.5625 7.45 11.25 7.5 10.9375 7.5C10.0263 7.49835 9.15294 7.13566 8.50865 6.49136C7.86435 5.84706 7.50165 4.97368 7.5 4.0625C7.5 3.14375 7.8625 2.3125 8.4375 1.69375C8.32408 1.55472 8.18106 1.44273 8.01888 1.36597C7.8567 1.2892 7.67943 1.24958 7.5 1.25C6.8125 1.25 6.25 1.8125 6.25 2.5V2.68125C4.39375 3.23125 3.125 4.9375 3.125 6.875V10.625L1.875 11.875V12.5H13.125V11.875L11.875 10.625V7.36875ZM7.5 14.375C8.19375 14.375 8.75 13.8188 8.75 13.125H6.25C6.25 13.4565 6.3817 13.7745 6.61612 14.0089C6.85054 14.2433 7.16848 14.375 7.5 14.375Z" fill="#EBEBEB"/>
</g>
</svg>
