<svg width="13" height="14" viewBox="0 0 13 14" fill="none" xmlns="http://www.w3.org/2000/svg">
<path d="M12.125 3.0625C12.125 4.26875 11.1438 5.25 9.9375 5.25C8.73125 5.25 7.75 4.26875 7.75 3.0625C7.75 1.85625 8.73125 0.875003 9.9375 0.875003C11.1438 0.875003 12.125 1.85625 12.125 3.0625ZM10.875 6.36875C10.5625 6.45 10.25 6.5 9.9375 6.5C9.02633 6.49835 8.15294 6.13566 7.50865 5.49136C6.86435 4.84706 6.50165 3.97368 6.5 3.0625C6.5 2.14375 6.8625 1.3125 7.4375 0.693753C7.32408 0.554716 7.18106 0.442735 7.01888 0.365968C6.8567 0.289202 6.67943 0.249585 6.5 0.250003C5.8125 0.250003 5.25 0.812503 5.25 1.5V1.68125C3.39375 2.23125 2.125 3.9375 2.125 5.875V9.625L0.875 10.875V11.5H12.125V10.875L10.875 9.625V6.36875ZM6.5 13.375C7.19375 13.375 7.75 12.8188 7.75 12.125H5.25C5.25 12.4565 5.3817 12.7745 5.61612 13.0089C5.85054 13.2433 6.16848 13.375 6.5 13.375Z" fill="#EBEBEB"/>
</svg>
