<svg width="14" height="14" viewBox="0 0 14 14" fill="none" xmlns="http://www.w3.org/2000/svg">
<g clip-path="url(#clip0_1_1190)">
<path fill-rule="evenodd" clip-rule="evenodd" d="M6.1249 1.16663C5.33425 1.16669 4.55507 1.35584 3.85239 1.71828C3.1497 2.08072 2.54387 2.60595 2.08546 3.25015C1.62704 3.89435 1.32933 4.63883 1.21715 5.42148C1.10497 6.20414 1.18159 7.00228 1.44061 7.7493C1.69962 8.49632 2.13353 9.17058 2.70613 9.7158C3.27872 10.261 3.9734 10.6614 4.7322 10.8836C5.49101 11.1057 6.29194 11.1432 7.06817 10.9928C7.84439 10.8425 8.57341 10.5087 9.1944 10.0193L11.3247 12.1496C11.4348 12.2559 11.5821 12.3147 11.7351 12.3134C11.888 12.312 12.0343 12.2507 12.1425 12.1425C12.2506 12.0344 12.312 11.8881 12.3133 11.7351C12.3146 11.5822 12.2558 11.4348 12.1496 11.3248L10.0192 9.19446C10.5956 8.46332 10.9544 7.58469 11.0547 6.65913C11.155 5.73357 10.9927 4.79847 10.5864 3.96085C10.18 3.12322 9.54609 2.41692 8.75708 1.92276C7.96807 1.4286 7.05588 1.16656 6.1249 1.16663ZM2.33324 6.12496C2.33324 5.11935 2.73272 4.15492 3.44379 3.44385C4.15487 2.73277 5.11929 2.33329 6.1249 2.33329C7.13052 2.33329 8.09494 2.73277 8.80602 3.44385C9.51709 4.15492 9.91657 5.11935 9.91657 6.12496C9.91657 7.13057 9.51709 8.095 8.80602 8.80607C8.09494 9.51715 7.13052 9.91663 6.1249 9.91663C5.11929 9.91663 4.15487 9.51715 3.44379 8.80607C2.73272 8.095 2.33324 7.13057 2.33324 6.12496Z" fill="#E0E0E0"/>
</g>
<defs>
<clipPath id="clip0_1_1190">
<rect width="14" height="14" fill="white"/>
</clipPath>
</defs>
</svg>
