<svg width="32" height="32" viewBox="0 0 32 32" fill="none" xmlns="http://www.w3.org/2000/svg">
<path d="M23.2 27H8.8C8.32276 26.9996 7.8652 26.8339 7.52773 26.5393C7.19027 26.2447 7.00048 25.8452 7 25.4286V6.57143C7.00048 6.15479 7.19027 5.75533 7.52773 5.46072C7.8652 5.16611 8.32276 5.00042 8.8 5H23.2C23.6772 5.00042 24.1348 5.16611 24.4723 5.46072C24.8097 5.75533 24.9995 6.15479 25 6.57143V19.6284L20.5 17.6641L16 19.6284V6.57143H8.8V25.4286H23.2V22.2857H25V25.4286C24.9993 25.8451 24.8094 26.2445 24.472 26.5391C24.1346 26.8336 23.6772 26.9994 23.2 27ZM20.5 15.9073L23.2 17.0859V6.57143H17.8V17.0859L20.5 15.9073Z" fill="white"/>
</svg>
